<?xml version="1.0" encoding="UTF-8" standalone="no"?>
<svg
   xmlns:dc="http://purl.org/dc/elements/1.1/"
   xmlns:cc="http://creativecommons.org/ns#"
   xmlns:rdf="http://www.w3.org/1999/02/22-rdf-syntax-ns#"
   xmlns:svg="http://www.w3.org/2000/svg"
   xmlns="http://www.w3.org/2000/svg"
   version="1.1"
   id="svg2"
   viewBox="0 0 1728 746.00001"
   height="210.53778mm"
   width="487.67999mm">
  <defs
     id="defs4" />
  <metadata
     id="metadata7">
    <rdf:RDF>
      <cc:Work
         rdf:about="">
        <dc:format>image/svg+xml</dc:format>
        <dc:type
           rdf:resource="http://purl.org/dc/dcmitype/StillImage" />
        <dc:title></dc:title>
      </cc:Work>
    </rdf:RDF>
  </metadata>
  <g
     id="layer2">
    <path
       id="path5362"
       d="M 0.17857143,475.64286 C 0.17857143,475.64286 36.521104,476.73714 54.642857,475.64286 78.343642,474.21169 101.85799,470.47222 125.35714,467.07143 160.12548,462.03977 194.30898,452.85529 229.28571,449.57143 264.13972,446.29909 299.37194,444.87152 334.28571,447.42857 360.77306,449.36848 387.23681,453.64703 412.85714,460.64286 437.21365,467.29359 461.22293,476.03767 483.57143,487.78571 503.12528,498.06467 521.91401,510.37561 538.21429,525.28571 553.60159,539.3607 566.08738,556.44203 578.05979,573.51645 589.67207,590.07727 596.7635,609.5884 608.86945,625.79185 622.23737,643.68441 637.66534,660.19734 654.57885,674.78425 670.69161,688.68056 688.2971,701.12247 707.14286,711 728.56715,722.229 751.73414,730.09684 775,736.71429 790.6023,741.15201 806.61943,744.48064 822.76925,746 841.87795,747.79773 861.22252,747.35769 880.34794,745.74746 907.12857,743.49272 933.97237,739.69899 959.89746,732.61548 1003.7044,720.64611 1045.2039,701.30758 1086.9241,683.37054 1147.1404,657.48137 1203.3131,622.34243 1264.6429,599.21429 1309.1371,582.43502 1355.1676,569.31118 1401.7857,559.92857 1456.2011,548.97663 1511.6782,542.4421 1567.1429,540.28571 1602.3833,538.91561 1672.1429,541.00001 1672.8571,544.57143 1673.5714,548.14287 1737.1429,551 1737.1429,551 L 1737.1429,-60.101731 -15.714286,-60.101731 -15.714286,476.79435 0.17857143,476.79435 Z"
       style="fill:none;fill-rule:evenodd;stroke:#000000;stroke-width:1px;stroke-linecap:butt;stroke-linejoin:miter;stroke-opacity:1" />
  </g>
</svg>
